<?xml version="1.0" encoding="utf-8"?>
<!-- Generator: Adobe Illustrator 24.3.0, SVG Export Plug-In . SVG Version: 6.00 Build 0)  -->
<svg version="1.1" id="Layer_1" xmlns="http://www.w3.org/2000/svg" xmlns:xlink="http://www.w3.org/1999/xlink" x="0px" y="0px"
	 viewBox="0 0 101 28" style="enable-background:new 0 0 101 28;" xml:space="preserve">
<style type="text/css">
	.st0{fill-rule:evenodd;clip-rule:evenodd;}
</style>
<desc>Created with Sketch.</desc>
<g id="Desktop">
	<g id="Home" transform="translate(-55.000000, -53.000000)">
		<path id="Brand-Logo" class="st0" d="M156,75.8c0-0.3-0.1-0.7-0.2-1.1c-0.2-0.4-0.4-0.7-0.6-0.9c-0.1-0.1-0.2-0.2-0.4-0.4
			c-0.1-0.2-0.2-0.4-0.3-0.4l-1-1.1c-0.2-0.2-0.4-0.5-0.8-0.9l-0.2-0.2c-0.1-0.1-0.2-0.2-0.2-0.3c0-0.1-0.1-0.2-0.3-0.4l-0.3-0.3
			c0,0-0.1-0.1-0.2-0.3c-0.1-0.1-0.2-0.2-0.3-0.3c-0.2-0.2-0.4-0.4-0.6-0.6l-0.2-0.2c-0.1-0.1-0.1-0.2-0.2-0.2
			c-0.1-0.1-0.2-0.2-0.2-0.3l-0.4-0.4c0-0.1-0.1-0.2-0.2-0.3c-0.1-0.1-0.2-0.2-0.3-0.3c-0.1-0.1-0.1-0.2,0-0.4l0.4-0.4
			c0.1-0.1,0.3-0.2,0.4-0.3l1.1-1.1c0.1,0,0.2-0.1,0.3-0.2c0.1-0.1,0.2-0.2,0.3-0.3l0.7-0.7l0.4-0.4c0.1,0,0.2-0.1,0.3-0.3l0.3-0.3
			c0.1-0.1,0.2-0.2,0.3-0.4l0.5-0.5c0.1-0.1,0.3-0.4,0.6-0.7c0.2-0.3,0.4-0.6,0.5-1c0.1-0.1,0.1-0.3,0.2-0.6c0-0.4,0-0.9,0-1.4
			c-0.1-0.6-0.3-1.2-0.7-1.7c-0.1-0.1-0.3-0.3-0.5-0.6l-0.8-0.6c-0.4-0.2-0.8-0.3-1.1-0.4c-0.2-0.1-0.5-0.1-0.9-0.1
			c-0.1,0-0.4,0-0.9,0.1c-0.2,0.1-0.4,0.2-0.6,0.3c-0.2,0.1-0.5,0.2-0.8,0.4c-0.2,0.2-0.5,0.5-0.9,0.9c-0.2,0.3-0.4,0.5-0.6,0.7
			c-0.1,0.1-0.2,0.3-0.4,0.5c-0.2,0.2-0.3,0.4-0.4,0.5c-0.1,0.1-0.3,0.4-0.6,0.7c-0.1,0.1-0.2,0.3-0.4,0.5c-0.2,0.2-0.3,0.5-0.5,0.6
			l-0.2,0.2c-0.1,0.1-0.2,0.2-0.2,0.3c-0.1,0.1-0.2,0.3-0.4,0.5c-0.2,0.2-0.4,0.4-0.5,0.5l-0.8,1c0,0-0.1,0.1-0.2,0.2
			c0,0.1-0.1,0.2-0.3,0.3c0,0-0.1,0.1-0.2,0.2c-0.1,0.1-0.1,0.2-0.2,0.2l-0.3,0.3l-0.1,0.1c0,0,0,0-0.1-0.1v-0.3v-0.8v-0.6v-0.2
			c0-1.2,0-2.2,0.1-2.9c0-0.3,0-0.6-0.1-0.8c0-0.4-0.2-0.8-0.4-1.3c-0.2-0.4-0.5-0.8-0.9-1.1c-0.2-0.2-0.5-0.4-0.8-0.5h-0.1
			c0,0,0-0.1,0-0.1c-0.1-0.1-0.2-0.1-0.3-0.2c-0.1,0-0.4-0.1-0.8-0.2c0,0-0.1,0-0.2-0.1c-0.1,0-0.2-0.1-0.3-0.1c0,0-0.1,0-0.2,0.1
			h-0.1c-0.1,0-0.4,0-0.9,0.1c0,0-0.1,0-0.3,0.1c-0.1,0-0.2,0.1-0.3,0.1c-0.1,0-0.2,0.1-0.5,0.3c0,0-0.1,0.1-0.2,0.1
			c-0.1,0.1-0.1,0.1-0.2,0.2c-0.2,0.1-0.4,0.4-0.6,0.7c-0.1,0.1-0.1,0.2-0.2,0.3c-0.1,0.2-0.2,0.4-0.3,0.5c0,0,0,0.1-0.1,0.2
			c-0.1,0.1-0.1,0.1-0.1,0.2c-0.1,0.2-0.1,0.5-0.1,0.7v0.5v2v0.5c0,0.4,0,0.5,0,0.5v0.4v0.7v1.8c0,0.8,0,1.4,0.1,1.8v0.4
			c0,0.2,0,0.5,0,0.8l-0.1,0.5c0,0.3,0,0.5,0.1,0.5c0,0.2,0,0.5-0.1,0.9v0.9v1.1v0.8c0,0.3,0,0.5,0.1,0.7c0,0.2,0,0.5-0.1,0.7V75
			v0.5V76v0.9V77c0,0.1,0.1,0.2,0.1,0.3c0.1,0.4,0.3,0.7,0.4,1c0,0.1,0.1,0.2,0.1,0.2c0,0.1,0.1,0.1,0.1,0.2
			c0.2,0.3,0.5,0.6,0.9,0.9c0.4,0.3,0.9,0.5,1.4,0.7c0.3,0.1,0.7,0.2,1,0.2c0.4,0,0.7-0.1,1-0.2c0.6-0.1,1.1-0.4,1.7-0.9
			c0.4-0.4,0.6-0.8,0.7-1c0.1-0.2,0.2-0.5,0.4-0.9c0.1-0.3,0.1-0.6,0.1-0.9v-0.9c0-0.3,0-1.1-0.1-1.4v-3.8v-0.6v-0.3v-0.1
			c0,0,0.1,0,0.1,0.1l0.1,0.1l0.5,0.6l0.5,0.7c0.2,0.2,0.3,0.4,0.5,0.6c0,0,0.1,0.2,0.4,0.6l0.5,0.6l0.6,0.8c0,0,0.1,0.1,0.2,0.2
			l0.2,0.2c0,0,0.3,0.4,0.9,1.2c0.2,0.2,0.5,0.6,0.9,1.1c0.1,0.2,0.4,0.5,0.7,1c0.2,0.2,0.5,0.6,0.9,1.1l0.1,0.1
			c0,0,0.1,0.1,0.2,0.3l0.2,0.2c0.1,0.3,0.2,0.4,0.4,0.5c0.4,0.3,0.8,0.6,1.4,0.8c0.1,0,0.4,0.1,0.7,0.2c0.5,0,0.8,0,1.1-0.1
			c0.4-0.1,0.7-0.2,1.1-0.3l0.2-0.1c0.3-0.2,0.4-0.2,0.6-0.4c0.4-0.3,0.6-0.5,0.6-0.6c0.3-0.5,0.5-0.9,0.5-1
			c0.1-0.1,0.1-0.4,0.2-0.7C156,76.8,156,76.3,156,75.8L156,75.8z M123.4,62.8c-0.1-0.3-0.2-0.5-0.3-0.7c-0.4-0.3-0.7-0.4-0.9-0.4
			H122c-0.2,0-0.6-0.1-1.1-0.1H120c-0.4,0-0.6-0.1-0.8-0.1c-0.1,0-0.1,0.1-0.1,0.1v0.2V63v0.9v0.6c0,0.1,0.1,0.1,0.1,0.1h0.6h0.3
			h0.4h0.7h0.9c0,0,0.1,0.1,0.2,0.1l0.1-0.1c0.4-0.2,0.7-0.4,0.8-0.7C123.4,63.5,123.5,63.1,123.4,62.8L123.4,62.8z M130.7,75.8
			c0,0.2,0.1,0.4,0.1,0.7c0,0.3-0.1,0.7-0.2,1.2c-0.1,0.2-0.2,0.4-0.3,0.6c-0.1,0.3-0.3,0.5-0.4,0.7c-0.4,0.4-0.6,0.6-0.9,0.7
			l-0.5,0.3c-0.4,0.2-0.7,0.3-0.7,0.3c-0.4,0.1-0.6,0.1-0.8,0.1c-0.2,0-0.5,0-0.8-0.1c-0.4-0.2-0.8-0.4-1.3-0.8l-0.2-0.2
			c-0.2-0.2-0.4-0.5-0.6-0.6c-0.1-0.1-0.3-0.5-0.8-1.3c-0.1-0.2-0.3-0.5-0.5-0.9c0,0-0.1-0.1-0.2-0.3c-0.1-0.1-0.1-0.2-0.2-0.3
			c0,0-0.2-0.3-0.4-0.7c-0.1-0.2-0.3-0.5-0.4-0.7c-0.1-0.1-0.2-0.3-0.3-0.5c-0.1-0.2-0.2-0.3-0.3-0.4c-0.2-0.3-0.4-0.7-0.6-1
			c-0.2-0.3-0.4-0.5-0.4-0.6c-0.1-0.3-0.2-0.5-0.3-0.6c0-0.1-0.1-0.2-0.2-0.3c-0.1-0.1-0.1-0.2-0.1-0.3c0,0-0.1-0.1-0.1-0.3
			c-0.1-0.1-0.1-0.2-0.1-0.2l-0.1-0.1c0,0-0.1,0.1-0.1,0.1v0.1c0,0.3,0.1,0.7,0.1,1.1v1.5c0,0.3,0.1,0.7,0.1,1.1
			c0,0-0.1,0.1-0.1,0.2l0.1,0.2v1.6c0,0.3,0,0.5-0.1,0.7c0,0.1,0,0.2-0.1,0.2c0,0,0,0.1-0.1,0.2c0,0.2-0.1,0.3-0.1,0.4
			c-0.1,0.4-0.3,0.8-0.5,1.1c-0.2,0.3-0.6,0.6-1,1c-0.1,0.1-0.2,0.2-0.4,0.3c-0.2,0.1-0.3,0.1-0.4,0.2c-0.1,0-0.2,0-0.4,0.1
			c-0.1,0-0.2,0.1-0.3,0.1h-0.6l-0.7-0.2c-0.2-0.1-0.4-0.2-0.6-0.3c-0.1,0-0.4-0.2-0.9-0.6c-0.2-0.2-0.3-0.4-0.4-0.6
			c-0.1-0.2-0.2-0.4-0.4-0.5c-0.1-0.2-0.1-0.4-0.2-0.5c0-0.1,0-0.2-0.1-0.3c0-0.1-0.1-0.2-0.1-0.3c0-0.1,0-0.2-0.1-0.3v-0.6v-1.4
			v-0.4v-2.7V71v-1.1v-0.4v-0.5v-0.4v-0.4v-0.5v-0.1c0,0,0-0.1,0-0.4v-0.4v-0.5v-0.7v-0.7v-3.7v-2.5c0-0.4,0-0.6,0.1-0.8
			c0.1-0.5,0.2-0.9,0.3-1.2c0.1-0.1,0.1-0.2,0.2-0.4c0.1-0.1,0.2-0.3,0.4-0.6c0.2-0.3,0.6-0.5,0.9-0.7c0.3-0.2,0.7-0.3,1.2-0.4
			c0.2,0,0.6-0.1,1-0.1h0.1h0.9h0.2c0.1,0,0.2,0.1,0.2,0.1c0.2,0,0.4,0,0.5-0.1h0.2c0.1,0,0.1,0.1,0.2,0.1c0,0,0.2-0.1,0.6-0.1
			l0.6,0.1c0,0,0.1-0.1,0.3-0.1l0.3,0.1h0.9h0.7h1.2c0.4,0,0.7,0,0.9,0.1c0.1,0.1,0.4,0.1,0.5,0.1c0,0,0.1,0,0.2,0.1
			c0.2,0,0.3,0.1,0.4,0.1c0.2,0,0.4,0.1,0.7,0.3c0.4,0.1,0.7,0.3,0.9,0.4c0.4,0.2,0.7,0.4,0.9,0.5c0.2,0.2,0.4,0.3,0.5,0.4l0.4,0.4
			c0.2,0.2,0.4,0.6,0.7,1c0.1,0.1,0.2,0.3,0.2,0.4c0.2,0.2,0.3,0.5,0.4,0.7c0.1,0.4,0.2,0.7,0.2,0.8c0.1,0.4,0.2,0.7,0.3,1
			c0,0.1,0.1,0.2,0.1,0.4c0.1,0.2,0.1,0.4,0.1,0.4c0,0.1,0,0.2,0.1,0.4c0,0.2,0.1,0.3,0.1,0.4v0.3c0,0.1,0.1,0.2,0.1,0.3v0.9
			c0,0.1-0.1,0.2-0.1,0.3c0,0.1-0.1,0.2-0.1,0.3l-0.2,1c0,0.1-0.1,0.2-0.1,0.3c-0.1,0.2-0.1,0.3-0.2,0.4c-0.1,0.3-0.1,0.5-0.2,0.6
			l-0.2,0.5l-0.3,0.5c0,0,0,0.1-0.1,0.1c-0.1,0.1-0.1,0.1-0.1,0.2c-0.1,0.2-0.3,0.4-0.5,0.5l-0.5,0.5c-0.4,0.3-0.6,0.5-0.7,0.6
			c0,0.1-0.1,0.2-0.1,0.2c0,0.1,0.1,0.1,0.1,0.2c0.1,0.1,0.1,0.2,0.2,0.4c0.2,0.2,0.3,0.4,0.4,0.5c0.1,0.1,0.2,0.3,0.4,0.6
			c0.2,0.3,0.3,0.5,0.4,0.7c0,0.1,0.1,0.2,0.3,0.3c0.1,0.2,0.2,0.3,0.2,0.4c0.3,0.4,0.5,0.8,0.6,1c0.1,0.1,0.3,0.4,0.4,0.8
			c0.1,0.2,0.1,0.4,0.2,0.6C130.6,75.5,130.6,75.7,130.7,75.8L130.7,75.8z M67.7,71.3c-0.1-0.2-0.1-0.3-0.2-0.4
			c-0.2-0.2-0.4-0.4-0.6-0.4h-0.7c-0.3,0-0.7-0.1-1.1-0.1c-0.2,0-0.5-0.1-0.9-0.1h-0.9H63c0,0-0.1,0.1-0.1,0.1v0.2v0.7V72V72v0.6
			l0.1,0.1h0.6H64c0.1,0,0.2,0.1,0.3,0.1h0.3h0.5h0.2h0.1h0.3h0.7c0.2,0,0.4,0,0.6-0.1c0.4-0.3,0.6-0.5,0.6-0.7
			C67.7,71.7,67.7,71.5,67.7,71.3L67.7,71.3z M62.9,63.3c0,0.1,0.1,0.2,0.1,0.2l0.1,0.1h0.4h0.2h0.5h0.4c0.3,0,0.6,0,0.7-0.1
			c0.2-0.2,0.4-0.3,0.4-0.4l0.1-0.1c0.1-0.2,0.2-0.5,0.2-0.7c0-0.2-0.1-0.4-0.3-0.6l-0.1-0.1c-0.2-0.2-0.6-0.3-0.9-0.3h-0.6
			c-0.2,0-0.4-0.1-0.5-0.1h-0.3H63L63,61.5c0,0.1-0.1,0.1-0.1,0.1v0.9V63.3z M75.5,71.5c0,0.2,0.1,0.4,0.1,0.6v0.7
			c-0.1,0.1-0.1,0.5-0.1,0.6v0.2c-0.1,0.2-0.1,0.4-0.1,0.5c0,0.1,0,0.2-0.1,0.3c0,0.1-0.1,0.2-0.1,0.2c-0.1,0.1-0.2,0.5-0.4,0.9
			c-0.3,0.5-0.6,1-0.9,1.3c-0.4,0.5-0.8,0.9-1,1.1c-0.5,0.4-0.9,0.6-1.1,0.7c-0.4,0.2-0.8,0.4-1.1,0.5c-0.7,0.2-1.3,0.4-1.5,0.4
			c-0.4,0.1-0.8,0.1-1,0.1c-0.6,0-1.1,0-1.4-0.1h-1.3c-0.6,0-1.1,0-1.4-0.1h-2.7h-0.6h-2c-0.2,0-0.4,0-0.6-0.1
			c-0.6-0.1-1-0.4-1.4-0.7c-0.3-0.2-0.5-0.4-0.6-0.5c-0.1-0.2-0.3-0.4-0.4-0.5c0-0.1-0.1-0.2-0.2-0.4c-0.1-0.3-0.2-0.5-0.3-0.6
			c0-0.1,0-0.2-0.1-0.4c0-0.2-0.1-0.3-0.1-0.4c0-0.1,0-0.2-0.1-0.4v-0.4v-0.1V75c0-0.1,0.1-0.2,0.1-0.3v-0.5v-0.6v-0.9v-1.1v-1.3
			v-1.5v-0.7v-1.1c0,0,0.1-0.1,0.1-0.4l-0.1-0.4V65v-1.3v-1.5v-0.2c0-0.1,0.1-0.2,0.1-0.3v-0.4c0-0.2-0.1-0.3-0.1-0.4v-1.1V59v-0.9
			c0-0.2,0-0.4,0.1-0.5c0-0.1,0.1-0.2,0.1-0.4c0.1-0.2,0.1-0.4,0.2-0.5c0.2-0.4,0.4-0.7,0.5-0.7c0.2-0.2,0.5-0.5,0.9-0.9
			c0.1-0.1,0.2-0.2,0.4-0.2c0.2-0.1,0.5-0.2,0.7-0.3c0.1,0,0.2-0.1,0.3-0.1c0.1-0.1,0.2-0.1,0.3-0.1h0.3c0.1,0,0.2-0.1,0.3-0.1
			c0.2,0,0.6,0.1,1,0.1c0.5,0,0.9,0,1.1,0.1h0.7h0.4h0.3h0.6c0.2,0,0.4,0.1,0.6,0.1h1.4h0.3c0.1,0,0.3,0,0.6,0.1
			c0.2,0,0.4,0.1,0.5,0.1c0.1,0,0.2,0,0.3,0.1c0.1,0,0.2,0.1,0.3,0.1c0.3,0.1,0.6,0.1,0.7,0.2c0.2,0,0.4,0.1,0.7,0.3
			c0.4,0.2,0.7,0.4,0.9,0.5c0.3,0.1,0.5,0.2,0.6,0.3c0.2,0.1,0.4,0.3,0.7,0.5c0.1,0.1,0.2,0.2,0.4,0.3l0.3,0.3l0.6,0.7
			c0,0.1,0.2,0.2,0.4,0.5c0.2,0.3,0.3,0.5,0.4,0.9c0.1,0.2,0.2,0.5,0.3,0.9c0.1,0.2,0.1,0.4,0.1,0.5c0,0,0,0.1,0.1,0.2
			c0,0.1,0.1,0.2,0.1,0.2v0.4c0,0.2,0.1,0.4,0.1,0.5c0,0.4,0,0.6-0.1,0.8c0,0.3-0.1,0.6-0.2,1c0,0.1-0.1,0.2-0.1,0.4
			c-0.1,0.2-0.1,0.3-0.1,0.4c0,0.1-0.1,0.1-0.1,0.2c0,0.1-0.1,0.3-0.3,0.6c-0.1,0.3-0.3,0.5-0.4,0.6l-0.1,0.1v0.1
			c0,0.1,0,0.2,0.1,0.3c0.5,0.4,0.7,0.5,0.7,0.5c0.3,0.2,0.5,0.4,0.6,0.5c0.1,0.1,0.1,0.2,0.2,0.2l0.3,0.3c0.1,0.2,0.2,0.4,0.4,0.5
			c0.2,0.3,0.4,0.7,0.6,1l0.3,0.8c0,0.1,0,0.2,0.1,0.4C75.5,71.2,75.5,71.4,75.5,71.5L75.5,71.5z M106,65.3c-1.6-1-4,0-5.4,2.2
			c-1.4,2.2-1.2,4.7,0.4,5.7c1.6,1,4,0,5.4-2.2C107.8,68.8,107.6,66.3,106,65.3L106,65.3z M97.1,70c-0.4-1-0.8-2-1.3-3
			c-0.3-0.7-0.8-1.4-1.3-2c-0.9-0.8-2.3-1-3.4-0.5c-0.7,0.4-1.4,0.8-1.9,1.4c-1.6,1.5-3.3,2.7-5.5,3.2c-2.2,0.5-3.3,2.5-3.4,4.3
			c-0.1,1.6,0.7,3,2.1,3.9c0.8,0.5,1.7,0.9,2.6,1c2.8,0.5,5.5,1.1,8.1,2l1.7,0.5c0.5,0,0.8,0.1,1.2,0c0.3,0,0.7,0,1-0.1
			c1.8-0.2,3.3-1.7,3.4-3.5c0.1-1.2-0.2-2.5-1-3.5C98.5,72.7,97.7,71.4,97.1,70L97.1,70z M97.3,64.8c1.8,0.9,4.4-0.4,5.6-2.9
			c1.2-2.5,0.8-5.2-1.1-6.1c-1.8-0.9-4.4,0.4-5.6,2.9C95,61.2,95.5,63.9,97.3,64.8L97.3,64.8z M89.5,63c2,0.1,3.9-2,4.1-4.7
			c0.2-2.8-1.3-5.1-3.4-5.3c-2-0.1-3.9,2-4.1,4.7C85.9,60.5,87.4,62.9,89.5,63L89.5,63z M82,68.4c-1.9,0.1-3.5-2-3.6-4.5
			c-0.1-2.5,1.4-4.7,3.3-4.7c1.9-0.1,3.5,2,3.6,4.5C85.3,66.2,83.8,68.4,82,68.4L82,68.4z"/>
	</g>
</g>
</svg>
